<?xml version="1.0" ?>
<!-- Uploaded to: SVG Repo, www.svgrepo.com, Generator: SVG Repo Mixer Tools -->
<svg width="800px" height="800px" viewBox="0 0 2050 2050" xmlns="http://www.w3.org/2000/svg">
<defs>
<style>.cls-1{fill:#ffffff;}.cls-2{fill:#ffc500;}.cls-3{fill:#ff9f1e;}.cls-4{fill:#ffe059;}.cls-5{fill:#00305f;}.cls-6{fill:#ea1700;}.cls-7{fill:#4795ff;}</style>
</defs>
<title/>
<g data-name="Layer 1" id="Layer_1">
<rect class="cls-1" height="2040" width="2040" x="5" y="5"/>
</g>
<g data-name="Layer 3" id="Layer_3">
<circle class="cls-2" cx="1025" cy="1025" r="613.7"/>
<path class="cls-3" d="M1068.5,1551.8c-339,0-613.7-274.8-613.7-613.7a613.5,613.5,0,0,1,44.4-229.8A610.7,610.7,0,0,0,411.3,1025c0,338.9,274.8,613.7,613.7,613.7,257.7,0,478.3-158.8,569.2-383.9C1486.8,1432.8,1291.5,1551.8,1068.5,1551.8Z"/>
<path class="cls-4" d="M1025,411.3A610.4,610.4,0,0,0,659.9,531.7a706.9,706.9,0,0,1,453.2-18.9,27.8,27.8,0,0,0-3.3,5.1c-18.2,33.9,18.9,89.1,82.7,123.3s130.4,34.6,148.6.8a38.6,38.6,0,0,0,3.7-10.5c165.2,128,271.9,328.1,272.9,553.1a613.3,613.3,0,0,0,21-159.6C1638.7,686.1,1363.9,411.3,1025,411.3Z"/>
<ellipse class="cls-4" cx="1339.4" cy="698.8" rx="30.8" ry="52.8" transform="translate(396.9 1879.5) rotate(-79)"/>
<ellipse class="cls-4" cx="1235.1" cy="718.7" rx="17.2" ry="25" transform="translate(-4.9 1429) rotate(-60)"/>
<path class="cls-5" d="M734.3,1008.4a30,30,0,0,1-15-56l92.8-53.7-72.2-35.1a30,30,0,0,1,26.1-54l123.1,59.7a30.1,30.1,0,0,1,2,53l-141.8,82A29.2,29.2,0,0,1,734.3,1008.4Z"/>
<path class="cls-5" d="M1315.7,1008.4a29.2,29.2,0,0,1-15-4.1l-141.8-82a30.1,30.1,0,0,1,2-53L1284,809.6a30,30,0,0,1,26.1,54l-72.2,35.1,92.8,53.7a30,30,0,0,1-15,56Z"/>
<path class="cls-5" d="M1025,1320.9h0c-121.4,0-219.8-98.4-219.8-219.8v-25h0a756.7,756.7,0,0,1,439.6,0h0v25C1244.8,1222.5,1146.4,1320.9,1025,1320.9Z"/>
<path class="cls-6" d="M1025,1320.9h0a218.1,218.1,0,0,0,106-27.2c-18.1-58.4-58.8-99.1-106-99.1s-87.9,40.7-106,99.1A218.1,218.1,0,0,0,1025,1320.9Z"/>
<path class="cls-7" d="M550.2,1203.6h0a78.4,78.4,0,0,1,20.9-93.5l66.3-55.1a27.7,27.7,0,0,1,44.8,16.2l15.9,84.7a78.5,78.5,0,0,1-43.7,85.3h0A78.4,78.4,0,0,1,550.2,1203.6Z"/>
<path class="cls-7" d="M1499.8,1203.6h0a78.4,78.4,0,0,0-20.9-93.5l-66.3-55.1a27.7,27.7,0,0,0-44.8,16.2l-15.9,84.7a78.5,78.5,0,0,0,43.7,85.3h0A78.4,78.4,0,0,0,1499.8,1203.6Z"/>
</g>
</svg>